HIERARCHY
ROOT joint_Root
{
	OFFSET 0.0 0.0 0.0
	CHANNELS 6 Xposition Yposition Zposition Zrotation Xrotation Yrotation 
	JOINT Hips
	{
		OFFSET 4.5925 91.4895 -427.239
		CHANNELS 6 Xposition Yposition Zposition Zrotation Xrotation Yrotation 
		JOINT Spine
		{
			OFFSET 15.7357 0.0 0.0
			CHANNELS 6 Xposition Yposition Zposition Zrotation Xrotation Yrotation 
			JOINT Chest
			{
				OFFSET 8.98455 -0.406207 0.0
				CHANNELS 6 Xposition Yposition Zposition Zrotation Xrotation Yrotation 
				JOINT Neck
				{
					OFFSET 16.3773 0.0 0.0
					CHANNELS 6 Xposition Yposition Zposition Zrotation Xrotation Yrotation 
					JOINT Head
					{
						OFFSET 6.45672 0.0 0.0
						CHANNELS 6 Xposition Yposition Zposition Zrotation Xrotation Yrotation 
						End Site
						{
							OFFSET 0.0 0.0 0.0
						}
					}
				}
				JOINT Shoulder_L
				{
					OFFSET 12.9942 -0.242716 4.98039
					CHANNELS 6 Xposition Yposition Zposition Zrotation Xrotation Yrotation 
					JOINT UpperArm_L
					{
						OFFSET 5.34809 0.0 0.0
						CHANNELS 6 Xposition Yposition Zposition Zrotation Xrotation Yrotation 
						JOINT LowerArm_L
						{
							OFFSET 24.3286 1.87007e-05 0.0
							CHANNELS 6 Xposition Yposition Zposition Zrotation Xrotation Yrotation 
							JOINT Hand_L
							{
								OFFSET 22.2916 0.0 0.0
								CHANNELS 6 Xposition Yposition Zposition Zrotation Xrotation Yrotation 
								End Site
								{
									OFFSET 0.0 0.0 0.0
								}
							}
						}
					}
				}
				JOINT Shoulder_R
				{
					OFFSET 12.9945 -0.242716 -4.98039
					CHANNELS 6 Xposition Yposition Zposition Zrotation Xrotation Yrotation 
					JOINT UpperArm_R
					{
						OFFSET -5.34813 0.0 0.0
						CHANNELS 6 Xposition Yposition Zposition Zrotation Xrotation Yrotation 
						JOINT LowerArm_R
						{
							OFFSET -24.3289 0.000322201 0.0
							CHANNELS 6 Xposition Yposition Zposition Zrotation Xrotation Yrotation 
							JOINT Hand_R
							{
								OFFSET -22.2915 -0.000108084 0.0
								CHANNELS 6 Xposition Yposition Zposition Zrotation Xrotation Yrotation 
								End Site
								{
									OFFSET 0.0 0.0 0.0
								}
							}
						}
					}
				}
			}
		}
		JOINT UpperLeg_L
		{
			OFFSET -2.19248 -6.46944 0.0
			CHANNELS 6 Xposition Yposition Zposition Zrotation Xrotation Yrotation 
			JOINT LowerLeg_L
			{
				OFFSET 39.0811 0.0 -1.23785e-05
				CHANNELS 6 Xposition Yposition Zposition Zrotation Xrotation Yrotation 
				JOINT Foot_L
				{
					OFFSET 40.9854 0.0 -1.26872e-05
					CHANNELS 6 Xposition Yposition Zposition Zrotation Xrotation Yrotation 
					JOINT Toes_L
					{
						OFFSET 11.7543 0.0 0.0
						CHANNELS 6 Xposition Yposition Zposition Zrotation Xrotation Yrotation 
						End Site
						{
							OFFSET 0.0 0.0 0.0
						}
					}
				}
			}
		}
		JOINT UpperLeg_R
		{
			OFFSET -2.19251 6.46944 0.0
			CHANNELS 6 Xposition Yposition Zposition Zrotation Xrotation Yrotation 
			JOINT LowerLeg_R
			{
				OFFSET -39.0811 -0.00228153 -0.0401928
				CHANNELS 6 Xposition Yposition Zposition Zrotation Xrotation Yrotation 
				JOINT Foot_R
				{
					OFFSET -40.9854 0.0 0.0
					CHANNELS 6 Xposition Yposition Zposition Zrotation Xrotation Yrotation 
					JOINT Toes_R
					{
						OFFSET -11.7543 0.0 0.0
						CHANNELS 6 Xposition Yposition Zposition Zrotation Xrotation Yrotation 
						End Site
						{
							OFFSET 0.0 0.0 0.0
						}
					}
				}
			}
		}
	}
}
MOTION
Frames:	5
Frame Time:	0.0333333
0.000000 0.000000 0.000000 0.000000 0.000000 -0.000000 -1.493820 91.438500 1.103970 88.903900 1.402040 4.463260 15.735700 0.000005 -0.000001 90.474000 85.545600 -94.293000 8.984550 -0.406207 -0.000000 1.163670 0.293337 -7.634450 16.377300 -0.000001 -0.000001 7.272260 -5.649560 6.414430 6.456720 -0.000001 -0.000000 -1.022370 -3.484200 -0.330507 12.994200 -0.242716 4.980390 -92.138700 5.482750 -68.651500 5.348090 -0.000007 -0.000001 -60.919600 17.671700 -5.372630 24.328600 0.000019 0.000005 5.730040 17.822500 -18.151300 22.291600 -0.000001 0.000005 14.620000 5.184490 3.105230 12.994500 -0.242716 -4.980390 92.599100 -6.617670 -68.501000 -5.348130 -0.000001 -0.000004 -31.398700 -60.175200 -64.916500 -24.328900 0.000322 -0.000009 -9.869340 -5.703020 -60.263600 -22.291500 -0.000108 -0.000004 21.677800 5.495890 -6.369190 -2.192480 -6.469440 -0.000000 -174.222000 -11.134200 -4.100100 39.081100 -0.000007 -0.000012 -0.155901 0.301997 27.304500 40.985400 -0.000006 -0.000013 0.076853 9.148060 -68.709300 11.754300 -0.000000 0.000003 -0.000143 -0.001398 -16.630800 -2.192510 6.469440 -0.000001 177.189000 21.546000 178.845000 -39.081100 -0.002282 -0.040193 0.014674 -0.023568 25.740500 -40.985400 0.000008 0.000006 7.075430 12.213300 -70.945300 -11.754300 -0.000006 -0.000006 -0.003641 -0.047651 -18.511200
0.000000 0.000000 0.000000 0.000000 0.000000 -0.000000 -1.294390 91.419500 1.110820 88.912300 0.375581 4.776520 15.735700 0.000005 -0.000001 89.401200 85.427700 -93.033800 8.984550 -0.406207 -0.000000 1.391840 0.106219 -7.260070 16.377300 -0.000001 -0.000001 7.073030 -5.154820 5.886360 6.456720 -0.000001 -0.000000 -0.767039 -3.117820 -0.072509 12.994200 -0.242716 4.980390 -92.251100 5.705970 -68.427900 5.348090 -0.000007 -0.000001 -61.398800 19.602000 -5.800630 24.328600 0.000019 0.000005 5.689610 17.392900 -18.433000 22.291600 -0.000001 0.000005 13.735200 5.189690 2.976120 12.994500 -0.242716 -4.980390 91.993900 -5.411110 -69.737600 -5.348130 -0.000001 -0.000004 -29.743000 -56.726100 -58.382800 -24.328900 0.000322 -0.000009 -9.724850 -3.749830 -69.112200 -22.291500 -0.000108 -0.000004 21.793900 5.480670 -5.774150 -2.192480 -6.469440 -0.000000 -174.245000 -11.778500 -3.615490 39.081100 -0.000007 -0.000012 -0.156419 0.302057 27.377400 40.985400 -0.000006 -0.000013 0.136440 8.777830 -68.882000 11.754300 -0.000000 0.000003 -0.000141 -0.001382 -16.630200 -2.192510 6.469440 -0.000001 176.902000 21.096400 179.069000 -39.081100 -0.002282 -0.040193 0.013790 -0.021650 25.828500 -40.985400 0.000008 0.000006 7.161580 12.846700 -71.083500 -11.754300 -0.000006 -0.000006 -0.003412 -0.045178 -18.410600
0.000000 0.000000 0.000000 0.000000 0.000000 -0.000000 -1.107180 91.396400 1.113210 88.872300 -0.679936 5.093080 15.735700 0.000005 -0.000001 88.449200 85.317100 -91.865300 8.984550 -0.406207 -0.000000 1.603420 -0.069891 -6.824850 16.377300 -0.000001 -0.000001 6.802840 -4.566530 5.244040 6.456720 -0.000001 -0.000000 -0.412549 -2.908600 0.229050 12.994200 -0.242716 4.980390 -92.302700 5.827310 -68.394200 5.348090 -0.000007 -0.000001 -61.955600 21.717400 -6.251880 24.328600 0.000019 0.000005 5.725230 17.183000 -18.745500 22.291600 -0.000001 0.000005 13.000000 5.196880 2.797330 12.994500 -0.242716 -4.980390 91.318500 -3.879340 -71.213100 -5.348130 -0.000001 -0.000004 -27.780500 -52.229000 -51.100500 -24.328900 0.000322 -0.000009 -8.934180 -1.955990 -77.750300 -22.291500 -0.000108 -0.000004 21.631600 5.462480 -5.091660 -2.192480 -6.469440 -0.000000 -174.223000 -12.293100 -3.156820 39.081100 -0.000007 -0.000012 -0.157803 0.303190 27.496100 40.985400 -0.000006 -0.000013 0.157342 8.295870 -69.075100 11.754300 -0.000000 0.000003 -0.000141 -0.001378 -16.630000 -2.192510 6.469440 -0.000001 176.650000 20.683900 179.233000 -39.081100 -0.002282 -0.040193 0.001378 0.003964 25.986300 -40.985400 0.000008 0.000006 6.962590 13.588100 -71.051100 -11.754300 -0.000006 -0.000006 -0.003342 -0.044412 -18.379400
0.000000 0.000000 0.000000 0.000000 0.000000 -0.000000 -0.958457 91.375600 1.091890 88.838200 -1.665020 5.308750 15.735700 0.000005 -0.000001 87.335400 85.206500 -90.516500 8.984550 -0.406207 -0.000000 1.810740 -0.280328 -6.351870 16.377300 -0.000001 -0.000001 6.449620 -3.996270 4.470670 6.456720 -0.000001 -0.000000 -0.135220 -2.701450 0.589739 12.994200 -0.242716 4.980390 -92.384800 6.025740 -68.360200 5.348090 -0.000007 -0.000001 -62.333400 23.727600 -6.910460 24.328600 0.000019 0.000005 5.856010 17.175900 -19.152700 22.291600 -0.000001 0.000005 13.168900 5.210550 2.453530 12.994500 -0.242716 -4.980390 90.646000 -2.063790 -72.616800 -5.348130 -0.000001 -0.000004 -26.446100 -46.344200 -44.244500 -24.328900 0.000322 -0.000009 -7.884990 -0.663773 -85.217200 -22.291500 -0.000108 -0.000004 21.646500 5.443800 -4.419320 -2.192480 -6.469440 -0.000000 -174.227000 -12.758900 -2.857060 39.081100 -0.000007 -0.000012 -0.156627 0.299297 27.624000 40.985400 -0.000006 -0.000013 0.142509 7.749310 -69.222600 11.754300 -0.000000 0.000003 -0.000150 -0.001451 -16.632700 -2.192510 6.469440 -0.000001 176.468000 20.269400 179.272000 -39.081100 -0.002282 -0.040193 -0.013784 0.034839 26.135300 -40.985400 0.000008 0.000006 6.717880 14.238000 -70.978300 -11.754300 -0.000006 -0.000006 -0.003248 -0.043375 -18.337200
0.000000 0.000000 0.000000 0.000000 0.000000 -0.000000 -0.840031 91.354700 1.080920 88.776200 -2.587070 5.534490 15.735700 0.000005 -0.000001 86.137100 85.103800 -89.047100 8.984550 -0.406207 -0.000000 1.997890 -0.512978 -5.805500 16.377300 -0.000001 -0.000001 6.045920 -3.507610 3.699430 6.456720 -0.000001 -0.000000 0.080015 -2.384800 0.678533 12.994200 -0.242716 4.980390 -92.480300 6.257000 -68.325100 5.348090 -0.000007 -0.000001 -62.580200 25.355300 -7.482950 24.328600 0.000019 0.000005 5.889300 16.650600 -19.798500 22.291600 -0.000001 0.000005 13.319300 5.222670 2.144360 12.994500 -0.242716 -4.980390 90.047800 -0.163024 -73.671600 -5.348130 -0.000001 -0.000004 -26.376100 -38.762700 -38.464400 -24.328900 0.000322 -0.000009 -7.596800 0.047921 -90.357500 -22.291500 -0.000108 -0.000004 21.202700 5.438750 -4.241900 -2.192480 -6.469440 -0.000000 -174.193000 -13.008100 -2.540770 39.081100 -0.000007 -0.000012 -0.159772 0.303769 27.743100 40.985400 -0.000006 -0.000013 0.074397 7.131140 -69.375700 11.754300 -0.000000 0.000003 -0.000149 -0.001444 -16.632500 -2.192510 6.469440 -0.000001 176.353000 19.841000 179.346000 -39.081100 -0.002282 -0.040193 -0.023574 0.054491 26.259600 -40.985400 0.000008 0.000006 6.593350 14.808700 -70.939900 -11.754300 -0.000006 -0.000006 -0.003180 -0.042621 -18.306500
